<?xml version="1.0" encoding="iso-8859-1"?>
<!-- Generator: Adobe Illustrator 19.0.0, SVG Export Plug-In . SVG Version: 6.00 Build 0)  -->
<svg version="1.1" id="Capa_1" xmlns="http://www.w3.org/2000/svg" xmlns:xlink="http://www.w3.org/1999/xlink" x="0px" y="0px"
	 viewBox="0 0 511.999 511.999" style="enable-background:new 0 0 511.999 511.999;" xml:space="preserve">
<g>
	<g>
		<path d="M425.001,63.723c-3.109-2.734-7.849-2.432-10.586,0.679c-2.735,3.11-2.432,7.849,0.679,10.586
			c6.5,5.717,12.654,11.75,18.447,18.064l-36.303,31.296c-34.893-37.416-83.014-59.309-133.73-61.281V15.124
			c44.288,1.362,87.054,14.763,124.122,38.979c3.466,2.263,8.113,1.29,10.382-2.178c2.265-3.468,1.29-8.116-2.178-10.382
			C354.23,14.366,305.879,0,256.006,0C114.523,0,0.007,114.497,0.007,256c0,141.209,114.233,255.999,255.999,255.999
			c65.383,0,127.628-24.655,175.267-69.424c3.019-2.837,3.166-7.583,0.33-10.603c-2.838-3.021-7.585-3.165-10.603-0.33
			c-97.781,91.889-254.08,87.285-345.648-16.141l36.924-30.61c5.342,5.957,11.068,11.623,17.183,16.934
			c3.126,2.716,7.864,2.385,10.581-0.744c2.717-3.127,2.383-7.864-0.744-10.581C5.858,274.609,106.201,51.084,284.882,80.274
			C370.33,94.301,434.085,168.469,434.085,256c0,136.808-148.736,222.427-266.812,154.431c-3.59-2.068-8.175-0.833-10.243,2.756
			c-2.067,3.59-0.833,8.177,2.756,10.243c124.365,71.617,283.546-14.27,289.14-159.93h47.954
			c-1.578,52.616-19.744,101.98-52.804,143.187c-2.593,3.23-2.074,7.951,1.156,10.544c1.385,1.111,3.042,1.65,4.688,1.65
			c2.196,0,4.373-0.96,5.854-2.807C540.783,310.123,528.479,154.739,425.001,63.723z M36.45,156.508l37.31,35.616
			c-2.27,6.473-4.488,14.245-5.905,20.389l-38.99-37.221C31.123,168.941,33.659,162.661,36.45,156.508z M23.78,191.179l40.875,39.02
			c-1.033,7.709-1.63,15.342-1.708,24.046l-43.987-41.993C20.258,205.139,21.858,198.106,23.78,191.179z M16.356,230.505
			l47.592,45.433c1.108,10.808,3.113,21.435,5.997,31.816l-54.928-52.436C15.041,246.72,15.52,238.417,16.356,230.505z
			 M65.773,403.959c-14.307-18.38-26.586-39.761-35.497-63.63l52.173,49.806L65.773,403.959z M82.307,340.294
			c5.669,11.676,12.603,22.91,20.378,33.065l-8.61,7.137l-72.65-69.355c-2.642-11.227-4.483-22.66-5.494-34.212L82.307,340.294z
			 M79.782,177.135l-36.427-34.774c3.204-5.977,6.682-11.819,10.401-17.528l35.512,33.902
			C85.83,164.608,82.584,170.896,79.782,177.135z M97.453,145.811l-34.995-33.408c3.753-5.045,7.72-9.969,11.868-14.724l34.7,33.127
			C104.93,135.612,101.062,140.628,97.453,145.811z M119.254,119.831l-34.725-33.15c4.53-4.586,8.804-8.606,13.674-12.838
			l34.922,33.337C128.292,111.178,123.625,115.447,119.254,119.831z M145.141,97.912l-35.204-33.606
			c5.063-3.862,10.289-7.533,15.63-10.98l35.919,34.288C155.869,90.774,150.408,94.215,145.141,97.912z M175.685,80.431
			L138.862,45.28c5.938-3.313,11.466-6.085,17.245-8.719l38.202,36.469C188.368,75.038,181.895,77.581,175.685,80.431z
			 M210.984,68.208l-39.686-37.885c6.957-2.613,14.039-4.905,21.173-6.852l42.522,40.592
			C227.174,64.914,218.873,66.327,210.984,68.208z M248.506,56.224l-38.586-36.835c12.334-2.375,25.066-3.85,38.586-4.26V56.224z
			 M448.94,248.499c-1.62-41.641-16.644-81.099-41.904-112.794l36.283-31.279c32.956,40.739,51.912,91.247,53.557,144.073H448.94z"
			/>
	</g>
</g>
<g>
</g>
<g>
</g>
<g>
</g>
<g>
</g>
<g>
</g>
<g>
</g>
<g>
</g>
<g>
</g>
<g>
</g>
<g>
</g>
<g>
</g>
<g>
</g>
<g>
</g>
<g>
</g>
<g>
</g>
</svg>
