<svg id="_x33_0" enable-background="new 0 0 64 64" height="512" viewBox="0 0 64 64" width="512" xmlns="http://www.w3.org/2000/svg"><path d="m39.919 35.011-2.885-3.999c-.371-.617-1.048-1.001-1.767-1.001-.542 0-1.073.221-1.458.604l-.204.205c-.391.391-.605.908-.605 1.458v.961c0 .34.085.678.247.978l5.951 11.132.001-.015c-.116 2.126-.2 4.173-.2 5.677 0 1.919.182 4.458.507 5.789 1.259 5.156 7.731 6.951 11.493 3.211 2.549-2.549 4-5.062 4-9.062.001-7-15.08-15.938-15.08-15.938zm-3.919 0c-.552 0-1-.448-1-1s.448-1 1-1 1 .448 1 1-.448 1-1 1zm13.707 21.682c-.868.865-1.977 1.319-3.125 1.319-.402 0-.809-.056-1.212-.169-1.552-.436-2.706-1.631-3.088-3.195-.187-.763-.282-1.66-.282-2.662 0-2.51.482-8.781.503-9.047l.131-1.696 1.419.939c.813.54 7.947 5.38 7.947 9.304 0 2.56-1.102 4.016-2.293 5.207z"/><path d="m17 13c0-1.044.14-2.078.405-3.079-.266-.634-.405-1.296-.405-1.963 0-.781.185-1.564.534-2.263l.348-.695h-3.882c0 2.206-1.794 4-4 4v8c2.206 0 4 1.794 4 4h6.237c-2.079-2.163-3.237-4.962-3.237-8z"/><path d="m10 19v2h2c0-1.103-.897-2-2-2z"/><path d="m23.326 21h.779l-5.084-8.318c-.003.106-.021.211-.021.318 0 3.214 1.579 6.11 4.326 8z"/><path d="m28 10.745c0-.962.748-1.745 1.667-1.745h2.666c.919 0 1.667.783 1.667 1.745v1.249l1.994-.012.012 2-2.006.012v3.006h-2v-6h-2v4.219c0 .674-.37 1.253-.905 1.544l2.444 4.237h3.135c2.747-1.89 4.326-4.786 4.326-8 0-3.018-1.625-5.983-4.344-8h-12.348l5.692 9.866z"/><path d="m32.197 36.485v-.001l-.71-1.319c-.107-.198-.191-.407-.263-.621-3.064 2.144-14.224 10.366-14.224 16.405 0 4 1.451 6.512 4 9.062 3.762 3.74 10.234 1.945 11.493-3.211.325-1.331.507-3.87.507-5.789 0-1.44-.083-3.462-.202-5.608l2.214-3.689zm-2.479 18.164c-.382 1.563-1.536 2.759-3.088 3.194-.404.114-.813.17-1.217.17-1.145 0-2.246-.449-3.092-1.292-1.219-1.219-2.321-2.675-2.321-5.235 0-3.924 7.134-8.765 7.947-9.304l1.419-.939.131 1.696c.021.266.503 6.538.503 9.047 0 1.002-.095 1.899-.282 2.663z"/><path d="m31.844 29.828c.11-.144.216-.29.346-.42l.204-.205c.33-.33.712-.581 1.119-.777l-13.45-23.316-.74 1.48c-.212.423-.323.895-.323 1.368 0 .514.131 1.023.378 1.474z"/><path d="m12 5h-2v2c1.103 0 2-.897 2-2z"/><path d="m48 7v-2h-2c0 1.103.897 2 2 2z"/><path d="m53 7.958c0-.473-.111-.945-.323-1.366l-.757-1.515-1.92 3.2v5.867l2.624-4.718c.245-.445.376-.954.376-1.468z"/><path d="m37.763 21h6.237c0-2.206 1.794-4 4-4v-8c-2.206 0-4-1.794-4-4h-6.343c2.12 2.25 3.343 5.095 3.343 8 0 3.038-1.158 5.837-3.237 8z"/><path d="m48 21v-2c-1.103 0-2 .897-2 2z"/><path d="m39.712 31.588 5.466-8.588h-3.562l-3.543 6.142c.259.247.488.528.676.841z"/></svg>